<svg width="197.000000" height="55.000000" viewBox="0 0 197 55" fill="none" xmlns="http://www.w3.org/2000/svg" xmlns:xlink="http://www.w3.org/1999/xlink">
	<desc>
			Created with Pixso.
	</desc>
	<defs>
		<clipPath id="clip1_577">
			<rect id="hahnemuehle-logo-vector 1" width="197.000000" height="55.000000" fill="white" fill-opacity="0"/>
		</clipPath>
	</defs>
	<rect id="hahnemuehle-logo-vector 1" width="197.000000" height="55.000000" fill="#FFFFFF" fill-opacity="0"/>
	<g clip-path="url(#clip1_577)">
		<path id="Vector" d="M62.57 48.9L62.57 29.53L60.11 29.53L60.11 37.86L51.69 37.86L51.69 29.53L49.23 29.53L49.23 48.9L51.69 48.9L51.69 40.13L60.14 40.13L60.14 48.9L62.57 48.9ZM77.19 39.03C77.19 36 75.88 34.43 71.88 34.43C70.37 34.43 68.6 34.66 67.32 35.06L67.55 37.03C68.67 36.8 70.4 36.56 71.71 36.56C73.98 36.56 74.73 37.2 74.73 38.96L74.73 41.16L71.06 41.16C68.24 41.16 66.8 42.23 66.8 45.16C66.8 47.66 67.91 49.23 70.5 49.23C72.17 49.23 73.78 48.76 75.03 47.9L75.19 48.96L77.22 48.96L77.19 39.03ZM74.76 45.96C73.68 46.66 72.37 47.13 71.16 47.13C69.45 47.13 69.19 46.53 69.19 45.1C69.19 43.66 69.75 43.2 71.22 43.2L74.76 43.2L74.76 45.96ZM92.2 48.9L92.2 38.03C92.2 35.86 91.41 34.43 89.19 34.43C87.58 34.43 85.35 35.13 83.81 35.93L83.81 28.63L81.42 28.96L81.42 48.93L83.81 48.93L83.81 38.26C85.32 37.5 87.45 36.8 88.46 36.8C89.35 36.8 89.81 37.16 89.81 38.1L89.81 48.93L92.2 48.93L92.2 48.9ZM107.44 48.9L107.44 38.03C107.44 35.86 106.66 34.43 104.43 34.43C102.79 34.43 100.36 35.16 98.82 35.96L98.59 34.76L96.63 34.76L96.63 48.93L99.02 48.93L99.02 38.23C100.53 37.46 102.66 36.8 103.67 36.8C104.56 36.8 105.02 37.16 105.02 38.1L105.02 48.93L107.44 48.93L107.44 48.9ZM113.57 43.96L113.57 42.8L121.87 42.8L121.87 39.83C121.87 36.9 120.75 34.46 116.62 34.46C112.49 34.46 111.18 36.83 111.18 39.76L111.18 44C111.18 47.2 112.59 49.2 116.69 49.2C118.42 49.2 120.29 48.9 121.6 48.4L121.31 46.43C119.77 46.83 118.29 47.1 116.92 47.1C114.2 47.1 113.57 46.2 113.57 43.96ZM113.57 39.56C113.57 37.56 114.36 36.5 116.62 36.5C118.88 36.5 119.54 37.63 119.54 39.56L119.54 40.73L113.57 40.73L113.57 39.56ZM144.88 48.9L144.88 38.03C144.88 35.86 144.09 34.43 141.86 34.43C140.12 34.43 137.76 35.13 136.09 35.96C135.7 35 134.88 34.43 133.44 34.43C131.8 34.43 129.37 35.16 127.83 35.96L127.6 34.76L125.64 34.76L125.64 48.93L128.03 48.93L128.03 38.23C129.54 37.46 131.67 36.8 132.68 36.8C133.57 36.8 134.03 37.16 134.03 38.1L134.03 48.93L136.42 48.93L136.42 38.23C137.93 37.46 139.93 36.8 141.07 36.8C141.96 36.8 142.42 37.16 142.42 38.1L142.42 48.93L144.88 48.93L144.88 48.9ZM149.17 34.76L149.17 45.63C149.17 47.8 149.96 49.23 152.19 49.23C153.83 49.23 156.25 48.5 157.79 47.7L158.02 48.9L159.99 48.9L159.99 34.73L157.6 34.73L157.6 45.43C156.09 46.2 153.96 46.86 152.94 46.86C152.06 46.86 151.6 46.5 151.6 45.56L151.6 34.73L149.17 34.76ZM151.11 32.6L153.33 32.6L153.33 30.16L151.11 30.16L151.11 32.6ZM156.05 32.6L158.28 32.6L158.28 30.16L156.05 30.16L156.05 32.6ZM175.36 48.9L175.36 38.03C175.36 35.86 174.57 34.43 172.35 34.43C170.74 34.43 168.51 35.13 166.97 35.93L166.97 28.63L164.58 28.96L164.58 48.93L166.97 48.93L166.97 38.26C168.48 37.5 170.61 36.8 171.62 36.8C172.51 36.8 172.97 37.16 172.97 38.1L172.97 48.93L175.36 48.93L175.36 48.9ZM182.21 48.9L182.21 28.6L179.82 28.93L179.82 48.9L182.21 48.9ZM188.44 43.96L188.44 42.8L196.73 42.8L196.73 39.83C196.73 36.9 195.62 34.46 191.49 34.46C187.36 34.46 186.05 36.83 186.05 39.76L186.05 44C186.05 47.2 187.46 49.2 191.55 49.2C193.29 49.2 195.16 48.9 196.47 48.4L196.18 46.43C194.64 46.83 193.16 47.1 191.78 47.1C189.06 47.1 188.44 46.2 188.44 43.96ZM188.44 39.56C188.44 37.56 189.23 36.5 191.49 36.5C193.75 36.5 194.41 37.63 194.41 39.56L194.41 40.73L188.44 40.73L188.44 39.56Z" fill="#6F7072" fill-opacity="1.000000" fill-rule="nonzero"/>
		<path id="Vector" d="M38.54 22.03C38.31 19.43 37.2 17.13 35.36 15.63C33.72 14.26 31.63 13.59 29.59 13.86C27.1 14.13 25.07 16.06 23.79 17.63C22.35 19.36 21.37 21.26 20.84 22.63C19.56 21.49 18.74 20.16 18.35 18.53C18.02 17.13 17.66 14.36 17.4 12.36C17.2 11.03 17.11 9.96 17.01 9.59C16.74 8.36 15.93 6.26 15.4 5.16C16.55 4.93 17.43 4.63 18.29 3.79C19.14 2.93 20.51 1.59 20.55 1.59L21.37 0.79L20.22 0.69C19.99 0.66 14.16 0.23 13.17 0.26C12.48 0.29 11.63 0.66 10.94 1.33C10.39 1.83 9.66 2.69 9.14 4.09C8.62 4.19 3.86 5.13 3.86 5.13L3.86 6.16L4.26 6.26C5.73 6.59 7.6 7.39 8.71 8.23L8.65 8.26C7.7 8.89 6.42 9.76 5.34 10.76C3.96 12.03 3.31 13.16 3.4 14.16C3.47 14.86 3.76 15.39 4.26 15.76C4.65 16.03 5.14 16.16 5.7 16.16C5.04 17.33 4.68 18.23 4.42 19.09C4.09 20.29 3.96 21.49 4.13 22.99C4.32 25.29 5.47 27.59 6.78 29.59L0 29.59L0 45.56C0 46.99 0.29 48.36 0.91 49.56C1.47 50.69 2.26 51.66 3.24 52.49C5.01 53.96 7.37 54.83 9.57 54.83C11.76 54.83 14.12 53.96 15.89 52.49C16.88 51.69 17.66 50.69 18.22 49.56C18.78 48.46 19.07 47.26 19.14 45.99C19.27 43.86 19.99 40.69 21.1 38.23C22.35 35.43 24.02 33.96 26.15 33.76C27.3 33.66 28.45 33.83 29.43 34.29C30.25 34.66 31.04 35.23 31.66 35.93C32.81 37.16 33.36 38.56 33.43 38.86L33.43 38.83L33.82 40.13L34.38 38.99C35.26 37.13 36.51 34.19 37.43 30.76C38.44 27.49 38.77 24.53 38.54 22.03ZM7.57 30.56L7.8 30.86C8.52 31.83 9.27 32.66 9.89 33.33L11.3 34.86C13.57 37.26 15.34 39.16 16.15 40.56C17.2 42.36 17.96 44.13 18.22 45.46C18.25 45.59 18.29 45.86 18.29 45.96C18.15 48.83 16.68 50.63 15.4 51.69C13.79 53.03 11.66 53.83 9.7 53.83C7.7 53.83 5.6 53.06 3.99 51.69C2.68 50.59 1.11 48.63 1.11 45.56L1.11 30.63L7.57 30.56ZM9.27 9.06L9.5 8.89C9.66 9.13 9.76 9.33 9.76 9.56C9.83 10.36 9.11 11.23 8.22 12.36C7.63 13.09 6.98 13.96 6.32 14.96C5.7 15.13 5.17 15.06 4.81 14.79C4.58 14.59 4.42 14.33 4.39 13.96C4.32 13.29 4.88 12.43 5.99 11.39C7.08 10.53 8.35 9.69 9.27 9.06ZM36.61 30.53C35.89 33.26 34.94 35.73 34.08 37.49C33.76 36.83 33.27 36.06 32.58 35.33C31.4 33.99 29.3 32.49 26.15 32.76C24.81 32.89 23.6 33.46 22.55 34.39C21.69 35.19 20.94 36.36 20.29 37.79C19.53 39.53 19.01 41.49 18.61 43.33C18.22 42.29 17.7 41.19 17.01 40.03C16.12 38.53 14.32 36.59 12.02 34.16L10.62 32.63C9.11 30.99 7.83 29.33 6.91 27.73C5.9 25.96 5.31 24.29 5.17 22.86C5.04 21.49 5.14 20.43 5.44 19.33C5.7 18.33 6.19 17.29 7.08 15.79C7.7 14.69 8.39 13.83 9.04 13.06C10.09 11.76 10.88 10.73 10.78 9.53C10.68 8.53 9.86 7.59 8.26 6.73C7.57 6.36 6.78 6.03 6.06 5.76C7.6 5.46 9.6 5.06 9.6 5.06L9.89 4.99L9.99 4.73C10.71 2.36 12.32 1.29 13.2 1.26C13.83 1.23 16.81 1.46 18.97 1.59C18.52 2.03 17.96 2.59 17.53 3.03C16.84 3.73 16.06 3.93 14.91 4.19L13.79 4.46L14.22 5.09C14.45 5.43 15.63 8.23 15.99 9.79C16.09 10.13 16.22 11.23 16.35 12.46C16.61 14.59 16.97 17.29 17.34 18.76C17.83 20.86 18.88 22.49 20.68 23.86L21.27 24.29L21.37 23.93C21.86 22.29 23.2 19.89 24.51 18.29C25.66 16.86 27.53 15.13 29.66 14.86C31.4 14.63 33.23 15.23 34.67 16.43C36.28 17.76 37.3 19.79 37.49 22.13C37.76 24.49 37.43 27.33 36.61 30.53ZM13.27 5.89C13.2 5.09 12.48 4.46 11.66 4.56C10.88 4.63 10.25 5.36 10.35 6.19C10.42 6.99 11.14 7.63 11.96 7.53C12.75 7.43 13.34 6.69 13.27 5.89ZM12.25 5.99C12.29 6.23 12.09 6.46 11.86 6.49C11.63 6.53 11.4 6.33 11.37 6.09C11.34 5.86 11.53 5.63 11.76 5.59C12.02 5.53 12.22 5.69 12.25 5.99ZM8.42 47.43L8.42 47.66C8.42 47.99 8.39 48.16 7.76 48.16C7.47 48.16 7.08 48.13 6.75 48.03L6.65 48.73C6.94 48.83 7.34 48.89 7.8 48.89C8.98 48.89 9.24 48.46 9.24 47.73L9.24 47.33C9.24 46.73 9.01 46.33 8.22 46.29C7.99 46.29 7.86 46.26 7.63 46.26L7.63 45.16L9.17 45.16L9.17 44.46L6.78 44.46L6.78 46.93C7.11 46.93 7.37 46.93 7.83 46.96C8.35 46.99 8.42 47.09 8.42 47.43ZM3.54 48.79L6.09 48.79L6.09 48.09L5.21 48.09L5.21 44.46L4.49 44.46L3.4 44.79L3.6 45.49L4.42 45.26L4.42 48.09L3.57 48.09L3.57 48.79L3.54 48.79ZM9.89 47.46L9.89 47.73C9.89 48.49 10.25 48.86 11.3 48.86C12.35 48.86 12.71 48.56 12.71 47.73L12.71 47.46C12.71 47.09 12.58 46.83 12.09 46.59C12.52 46.36 12.61 46.09 12.61 45.76L12.61 45.46C12.61 44.79 12.29 44.39 11.34 44.39C10.39 44.39 10.06 44.79 10.06 45.46L10.06 45.76C10.06 46.09 10.19 46.36 10.58 46.59C10.03 46.83 9.89 47.09 9.89 47.46ZM11.83 45.76C11.83 45.99 11.76 46.09 11.3 46.29C10.84 46.09 10.78 46.03 10.78 45.76L10.78 45.49C10.78 45.23 10.88 45.09 11.3 45.09C11.73 45.09 11.83 45.26 11.83 45.49L11.83 45.76ZM10.68 47.53C10.68 47.26 10.75 47.13 11.3 46.89C11.86 47.13 11.93 47.23 11.93 47.53L11.93 47.73C11.93 48.06 11.76 48.16 11.3 48.16C10.84 48.16 10.68 48.03 10.68 47.73L10.68 47.53ZM14.68 44.46L13.14 47.06L13.14 47.79L15.01 47.79L15.01 48.76L15.79 48.76L15.79 47.79L16.32 47.79L16.32 47.09L15.79 47.09L15.79 44.43L14.68 44.43L14.68 44.46ZM13.96 47.13L15.01 45.23L15.01 47.13L13.96 47.13Z" fill="#E1001A" fill-opacity="1.000000" fill-rule="nonzero"/>
	</g>
</svg>
