<svg width="186.000000" height="53.000000" viewBox="0 0 186 53" fill="none" xmlns="http://www.w3.org/2000/svg" xmlns:xlink="http://www.w3.org/1999/xlink">
	<desc>
			Created with Pixso.
	</desc>
	<defs/>
	<rect id="Frame 225" width="186.000000" height="53.000000" fill="#FFFFFF" fill-opacity="0"/>
	<path id="Vector" d="M35.23 7C38.31 8.9 42.08 14.03 43.39 17.84C44.93 22.08 43.47 26.26 39.85 29.34C33.92 34.32 30.15 37.76 27.38 40.91C25.23 43.4 22.54 46.55 22.77 53C17.08 46.48 16 36.44 22.15 29.92C28.77 22.89 30 21.42 32.46 18.35C34.77 15.42 35.62 11.24 35.23 7Z" fill="#558EC0" fill-opacity="1.000000" fill-rule="evenodd"/>
	<path id="Vector" d="M9.5 39C-6.49 25.47 -2.13 6.68 21.27 1.35C23.77 0.75 24.86 0.52 26.11 0C27.44 2.63 27.59 4.65 24.32 6.83C16.13 12.17 3.72 19.46 9.5 39Z" fill="#558EC0" fill-opacity="1.000000" fill-rule="evenodd"/>
	<path id="Vector" d="M67.91 42.33C66.6 42.85 65.95 43 63.99 43C56.21 43 50 37.16 50 30C50 22.83 56.3 17 63.99 17C65.3 17 66.6 17.14 68 17.59L68 24.01C66.77 23.35 65.54 23.05 63.99 23.05C59.73 23.05 56.3 26.15 56.3 30C56.3 33.84 59.73 36.94 63.99 36.94C65.79 36.94 66.69 36.64 67.83 36.05L67.91 42.33Z" fill="#053D5B" fill-opacity="1.000000" fill-rule="evenodd"/>
	<path id="Vector" d="M156 30C156 37.16 149.92 43 142.5 43C135 43 129 37.16 129 30C129 22.83 135.07 17 142.5 17C149.92 17 156 22.83 156 30ZM142.42 23.05C138.31 23.05 135 26.15 135 30C135 33.84 138.31 36.94 142.42 36.94C146.52 36.94 149.84 33.84 149.84 30C149.84 26.15 146.52 23.05 142.42 23.05Z" fill="#053D5B" fill-opacity="1.000000" fill-rule="evenodd"/>
	<path id="Vector" d="M98.89 42.92L92 42.92L92 27.04C92 21.72 96.67 17 102.5 17C108.32 17 113 21.72 113 27.04L113 43L106.1 43L106.1 27.04C106.1 24.71 104.46 23.29 102.41 23.29C100.36 23.29 98.72 24.94 98.72 27.04L98.89 42.92Z" fill="#053D5B" fill-opacity="1.000000" fill-rule="evenodd"/>
	<path id="Vector" d="M164.56 42.92L158 42.92L158 27.04C158 21.72 162.45 17 168 17C173.54 17 178 21.72 178 27.04L178 43L171.43 43L171.43 27.04C171.43 24.79 169.87 23.29 167.92 23.29C165.96 23.29 164.4 24.94 164.4 27.04L164.56 42.92Z" fill="#053D5B" fill-opacity="1.000000" fill-rule="evenodd"/>
	<path id="Vector" d="M76.56 36.18L76.56 42.92L70 42.92L70 27.04C70 21.72 74.45 17 80 17C85.54 17 90 21.72 90 27.04L90 43L83.43 43L83.43 36.1L76.56 36.1L76.56 36.18ZM83.51 30.26L83.51 27.11C83.51 24.86 81.95 23.36 80 23.36C78.2 23.36 76.48 25.01 76.48 27.11L76.48 30.33L83.51 30.33L83.51 30.26Z" fill="#053D5B" fill-opacity="1.000000" fill-rule="evenodd"/>
	<path id="Vector" d="M124.19 26.57L126.25 30.2C129.82 36.25 126.17 44.73 115 42.68L115 36.71C119.59 38.37 122.13 36.03 120.15 32.32C120.15 32.32 118.72 29.82 117.61 27.93C114.92 23.39 118.32 15.68 128 17.19L128 23.32C125.54 21.58 122.29 23.32 124.19 26.57Z" fill="#053D5B" fill-opacity="1.000000" fill-rule="evenodd"/>
	<path id="Vector" d="M186 20.5C186 21.23 185.64 21.82 185.11 22.26C184.58 22.7 183.79 23 183 23C182.11 23 181.41 22.7 180.88 22.26C180.35 21.82 180 21.16 180 20.5C180 19.76 180.35 19.17 180.88 18.73C181.41 18.29 182.2 18 183 18C183.79 18 184.58 18.29 185.11 18.73C185.64 19.17 186 19.76 186 20.5ZM184.85 22.11C185.38 21.67 185.64 21.16 185.64 20.5C185.64 19.91 185.38 19.32 184.85 18.88C184.32 18.44 183.7 18.22 182.91 18.22C182.11 18.22 181.5 18.44 180.97 18.88C180.44 19.32 180.17 19.83 180.17 20.5C180.17 21.16 180.44 21.67 180.97 22.11C181.5 22.55 182.11 22.77 182.91 22.77C183.7 22.77 184.32 22.48 184.85 22.11Z" fill="#053D5B" fill-opacity="1.000000" fill-rule="nonzero"/>
	<path id="Vector" d="M182.47 19.39L183.11 19.39C183.35 19.39 183.52 19.47 183.52 19.86C183.52 20.18 183.41 20.34 183.11 20.34L182.47 20.34L182.47 19.39ZM182.05 22L182.47 22L182.47 20.73L183.05 20.73C183.41 20.73 183.52 20.97 183.52 21.52C183.52 21.68 183.52 21.84 183.58 22L184 22C183.94 21.84 183.88 21.52 183.88 21.21C183.88 20.73 183.7 20.57 183.52 20.57C183.58 20.57 183.88 20.42 183.88 19.78C183.88 19.23 183.64 19 183.11 19L182 19L182 22L182.05 22Z" fill="#053D5B" fill-opacity="1.000000" fill-rule="evenodd"/>
</svg>
