<svg width="209.000000" height="26.000000" viewBox="0 0 209 26" fill="none" xmlns="http://www.w3.org/2000/svg" xmlns:xlink="http://www.w3.org/1999/xlink">
	<desc>
			Created with Pixso.
	</desc>
	<defs>
		<clipPath id="clip1_581">
			<rect id="Frame" width="209.000000" height="26.000000" fill="white" fill-opacity="0"/>
		</clipPath>
	</defs>
	<g clip-path="url(#clip1_581)">
		<path id="Vector" d="M126.09 25.92L123.83 25.92L123.83 0.07L126.09 0.07L126.09 25.92ZM179.73 0.07L179.73 21.74L159.57 0.07L159.57 0L157.23 0L157.23 25.92L159.57 25.92L159.57 4.02L179.73 25.92L179.73 25.84L179.73 25.92L182.06 25.92L182.06 0.07L179.73 0.07ZM152.12 0.07L152.12 0.15L128.19 25.84L131.65 25.84L152.12 3.26L152.12 18.24L142.04 18.24L142.04 20.6L152.12 20.6L152.12 25.84L154.37 25.84L154.37 0.07L152.12 0.07Z" fill="#000000" fill-opacity="1.000000" fill-rule="evenodd"/>
		<path id="Vector" d="M123.83 25.92L123.83 0.07L126.09 0.07L126.09 25.92L123.83 25.92ZM179.73 21.74L159.57 0.07L159.57 0L157.23 0L157.23 25.92L159.57 25.92L159.57 4.02L179.73 25.92L182.06 25.92L182.06 0.07L179.73 0.07L179.73 21.74ZM179.73 25.92L179.73 25.84L179.73 25.92M152.12 0.15L128.19 25.84L131.65 25.84L152.12 3.26L152.12 18.24L142.04 18.24L142.04 20.6L152.12 20.6L152.12 25.84L154.37 25.84L154.37 0.07L152.12 0.07L152.12 0.15Z" stroke="#000000" stroke-opacity="1.000000" stroke-width="0.000000"/>
		<path id="Vector" d="M114.2 14.13L114.35 14.13C118.11 14.13 121.2 10.71 121.2 6.91C121.2 3.26 118.34 0.22 114.8 0.07L114.8 0L114.43 0L95.92 0L95.92 25.92L98.25 25.92L98.25 2.35L114.65 2.35C115.76 2.5 116.77 3.04 117.51 3.88C118.24 4.72 118.64 5.8 118.64 6.91C118.64 9.35 116.76 11.7 114.28 11.86L111.12 11.86L111.12 14.44L111.19 14.44L117.89 25.84L121.57 25.84L114.2 14.13ZM81.02 0L68.46 0.07L68.46 25.92L87.34 25.92C90.95 25.69 93.74 22.65 93.74 19C93.74 16.49 92.46 14.36 90.5 13.14C92.46 11.93 93.74 9.42 93.74 6.91C93.74 3.26 90.95 0.3 87.42 0.07L87.42 0L81.02 0ZM81.02 23.56L70.79 23.56L70.79 2.35L87.27 2.35C88.37 2.5 89.39 3.04 90.12 3.88C90.86 4.72 91.26 5.8 91.25 6.91C91.25 9.42 89.22 11.78 86.74 11.86L86.74 14.44C89.22 14.44 91.25 16.49 91.25 19C91.25 21.36 89.45 23.26 87.19 23.56L81.02 23.56Z" fill="#000000" fill-opacity="1.000000" fill-rule="evenodd"/>
		<path id="Vector" d="M0 0L0 25.84L2.33 25.84L22.79 3.87L22.79 18.24L12.86 18.24L12.86 20.6L22.79 20.6L22.79 25.84L25.05 25.84L25.05 0L0 0ZM2.33 22.34L2.33 13.53L10.6 13.53L2.33 22.34ZM2.33 11.17L2.33 2.35L21.14 2.35L12.86 11.17L2.33 11.17Z" fill="#00ACEC" fill-opacity="1.000000" fill-rule="evenodd"/>
		<path id="Vector" d="M196.21 0C189.13 0 183.34 5.77 183.34 12.92C183.34 20.06 189.13 25.92 196.21 25.92C203.28 25.92 209 20.06 209 12.92C209 5.77 203.28 0 196.21 0ZM196.21 23.18C190.64 23.18 186.2 18.62 186.2 13.07C186.2 7.45 190.64 2.96 196.21 2.96C201.7 2.96 206.21 7.45 206.21 13.07C206.21 18.62 201.7 23.18 196.21 23.18Z" fill="#000000" fill-opacity="1.000000" fill-rule="evenodd"/>
		<path id="Vector" d="M58.75 2.5L58.75 0.15L33.55 0.15L33.55 25.92L35.81 25.92L35.81 14.06L50.66 14.06L39.72 25.84L43.18 25.84L63.57 3.26L63.57 18.24L53.56 18.24L53.56 20.6L63.57 20.6L63.72 25.99L66.05 25.99L65.9 0.07L63.57 0.07L63.57 0.15L52.84 11.7L35.81 11.7L35.81 2.5L58.75 2.5Z" fill="#000000" fill-opacity="1.000000" fill-rule="evenodd"/>
		<path id="Vector" d="M58.75 0.15L33.55 0.15L33.55 25.92L35.81 25.92L35.81 14.06L50.66 14.06L39.72 25.84L43.18 25.84L63.57 3.26L63.57 18.24L53.56 18.24L53.56 20.6L63.57 20.6L63.72 25.99L66.05 25.99L65.9 0.07L63.57 0.07L63.57 0.15L52.84 11.7L35.81 11.7L35.81 2.5L58.75 2.5L58.75 0.15Z" stroke="#000000" stroke-opacity="1.000000" stroke-width="0.000000"/>
	</g>
</svg>
