<svg width="225.000000" height="21.000000" viewBox="0 0 225 21" fill="none" xmlns="http://www.w3.org/2000/svg" xmlns:xlink="http://www.w3.org/1999/xlink">
	<desc>
			Created with Pixso.
	</desc>
	<defs>
		<clipPath id="clip1_588">
			<rect id="royal-talens-bv-logo-vector 1" width="225.000000" height="21.000000" fill="white" fill-opacity="0"/>
		</clipPath>
	</defs>
	<rect id="royal-talens-bv-logo-vector 1" width="225.000000" height="21.000000" fill="#FFFFFF" fill-opacity="0"/>
	<g clip-path="url(#clip1_588)">
		<path id="Vector" d="M13.55 20.14L11.04 20.8L5.57 12.56L2.5 12.48L2.65 20.45L0.18 20.65L0.18 0.5L4.97 0.35C7.14 0.27 8.83 0.77 9.99 1.78C11.15 2.83 11.75 4.23 11.75 5.91C11.75 7.03 11.38 8.12 10.66 9.21C9.95 10.34 8.94 11.2 7.59 11.74L7.59 11.82L13.55 20.14ZM2.61 1.94L2.47 11.12L6.21 10.96C7.56 10.57 9.17 8.94 9.17 6.53C9.17 3.85 7.48 2.1 4.67 2.02L2.61 1.94ZM25.19 20.8C19.8 20.8 15.57 16.64 15.57 10.42C15.57 4.7 20.36 0.03 25.75 0.03C31.18 0.03 35.41 4.23 35.41 10.46C35.37 16.21 30.36 20.8 25.19 20.8ZM25.56 19.13C29.79 19.13 32.75 15.86 32.75 10.65C32.75 5.44 29.31 1.71 25.38 1.71C21.18 1.71 18.19 4.93 18.19 10.22C18.19 15.32 21.71 19.13 25.56 19.13ZM46.01 20.45L43.53 20.65L43.53 11.08L36.23 0.7L38.89 0.35L45.03 9.64L51.36 0.35L53.49 0.7L45.97 11.2L46.01 20.45ZM70.26 20.41L67.68 20.68L65.77 15.36L56.45 15.55L54.54 20.65L52.41 20.41L60.76 0.35L61.88 0.07L70.26 20.41ZM61.02 3.81L57.16 13.76L65.17 13.92L61.02 3.81ZM78.84 20.45L73.71 20.61L73.71 0.54L76.18 0.35L76.07 8.86L76.14 18.9L84.38 18.58L84.19 20.49L78.84 20.45ZM135.78 20.45L133.31 20.65L133.31 2.02L125.82 2.29L126.01 0.35L134.32 0.35L143.04 0.15L142.86 2.21L135.82 1.94L135.67 9.33L135.78 20.45ZM159.63 20.41L157.05 20.68L155.14 15.36L145.81 15.55L143.9 20.65L141.77 20.41L150.12 0.35L151.24 0.07L159.63 20.41ZM150.38 3.81L146.53 13.76L154.54 13.92L150.38 3.81ZM168.2 20.45L163.07 20.61L163.07 0.54L165.54 0.35L165.43 8.82L165.51 18.86L173.74 18.55L173.56 20.45L168.2 20.45ZM180.52 20.45L177.26 20.61L177.26 0.5L181.9 0.35L187.67 0.35L187.48 2.29L179.73 1.98L179.55 9.6L186.28 9.41L185.87 11.31L179.51 11.12L179.7 18.86L188.31 18.58L188.12 20.49L180.52 20.49L180.52 20.45ZM194.41 20.45L192.2 20.65L192.39 0.54L194.18 0.35L206.13 15.9L205.9 0.54L208.11 0.35L207.85 20.45L207.02 20.61L194.15 4.35L194.41 20.45ZM217.84 20.65C216.72 20.65 215.6 20.41 214.51 19.95C213.43 19.48 212.6 18.9 212 18.31L213.2 16.95C214.7 18.12 216.31 19.01 218.48 19.01C220.88 19.01 222.52 17.88 222.52 15.67C222.52 14.5 222.11 13.61 221.36 13.06C220.61 12.52 219.57 11.97 218.29 11.43C215.64 10.34 212.79 9.21 212.79 5.52C212.79 2.56 215.37 0.19 218.89 0.19C220.73 0.19 222.64 0.73 223.76 1.59L223.31 3.34C222.19 2.8 220.02 1.98 218.37 1.98C216.53 1.98 215 2.87 215 4.82C215 6.06 215.41 6.96 216.16 7.5C216.91 8.08 217.96 8.63 219.19 9.17C221.81 10.34 224.73 11.27 224.73 14.89C224.77 18.7 221.44 20.65 217.84 20.65Z" fill="#333333" fill-opacity="1.000000" fill-rule="nonzero"/>
		<path id="Vector" d="M95.27 0.07L95.27 20.57L115 20.57L115 0.07L95.27 0.07ZM105.12 19.71C100.1 19.71 96.06 15.51 96.06 10.3C96.06 5.09 100.1 0.89 105.12 0.89C110.14 0.89 114.18 5.09 114.18 10.3C114.18 15.51 110.14 19.71 105.12 19.71ZM97.18 11.97C97.37 12.91 98.27 15.16 99.8 14.62C100.93 14.19 101 13.1 101.23 11.86C101.41 10.69 101.71 8.47 102.09 8.01C102.13 7.97 102.09 7.93 102.05 7.93C101.15 7.97 100.55 10.07 100.22 11.04C99.58 12.94 97.63 13.1 97.3 11.93C97.3 11.93 97.18 11.93 97.18 11.97ZM112.91 8.67C112.68 8.16 112.53 7.97 112.31 7.5C112.5 6.96 112.72 6.22 112.68 5.91C112.53 4.58 110.81 5.98 111.19 7.69C111.3 8.16 111.41 8.51 111.48 8.82C110.96 9.91 110.74 9.72 110.77 9.33C110.81 9.06 110.85 8.51 110.85 8.51C111 7.46 110.47 7.38 110.14 7.62C109.95 7.73 109.69 8.12 109.58 8.36L109.69 7.85L108.75 8.24L108.45 9.83C108.08 10.73 107.67 10.88 107.4 10.84C107.33 10.81 107.25 10.77 107.18 10.73C108.04 9.95 108.34 9.29 108.27 8.82C108.19 8.32 107.82 8.32 107.55 8.39C106.88 8.63 106.32 9.33 106.17 10.3C106.13 10.61 106.13 10.92 106.21 11.16C105.61 12.13 105.57 11.58 105.64 11.19C105.83 10.3 106.43 6.61 106.43 6.61L105.49 6.99C105.49 6.99 104.93 10.22 104.71 11.47C104.26 12.59 104.15 12.17 104.22 11.78C104.37 10.88 104.6 9.72 104.6 9.72L103.7 10.07C103.7 10.07 103.62 10.34 103.55 10.81C103.44 10.46 103.21 10.22 102.91 10.18C102.35 10.11 101.75 10.88 101.56 11.82C101.38 12.79 101.68 13.64 102.24 13.68C102.65 13.72 103.06 13.37 103.32 12.83C103.47 13.18 103.85 13.14 104.07 12.98C104.3 12.83 104.52 12.44 104.67 12.13C104.75 12.59 105.12 12.59 105.38 12.44C105.79 12.21 106.17 11.66 106.36 11.43C106.51 11.7 106.77 11.86 107.07 11.82C107.48 11.78 107.97 11.23 108.34 10.61L108.19 11.35L109.13 10.96L109.46 9.17C109.91 8.04 110.06 8.43 110.02 8.78C110.02 8.78 109.99 9.09 109.91 9.6C109.8 10.65 110.25 10.69 110.59 10.49C111.07 10.18 111.37 9.6 111.63 9.06C111.82 9.52 112.05 9.91 112.23 10.49C113.58 14.42 108.49 14.03 106.47 14.11C104.6 14.19 104.41 15.86 104.22 17.14C111.19 17.22 114.33 11.89 112.91 8.67ZM103.4 11.66C103.36 12.13 103.06 12.63 102.8 12.63C102.54 12.63 102.35 12.24 102.42 11.7C102.5 11.23 102.72 10.81 102.99 10.81C103.25 10.81 103.44 11.19 103.4 11.66ZM107.07 10.42C107.03 10.3 107.03 10.18 107.03 10.03C107.07 9.56 107.29 9.06 107.59 8.98C107.7 8.94 107.82 8.98 107.82 9.17C107.82 9.6 107.4 10.11 107.07 10.42ZM112.16 7.15C112.12 7.11 112.12 7.07 112.12 7.03C111.56 5.63 112.31 5.44 112.38 6.02C112.38 6.33 112.31 6.76 112.16 7.15ZM106.09 3.14C105.98 4.04 105.91 5.91 104.22 6.18C101.45 6.64 97.74 7.89 97.15 10.69C97.15 10.73 97.03 10.73 97.03 10.73C96.96 6.33 100.74 3.14 106.09 3.14Z" fill="#FF0000" fill-opacity="1.000000" fill-rule="nonzero"/>
	</g>
</svg>
